<svg xmlns="http://www.w3.org/2000/svg" width="1100" height="720" viewBox="0 0 1100 720">
  <rect width="100%" height="100%" fill="#f9fafb"/>
  <text x="100" y="45" font-size="30" font-weight="700" fill="#0f172a">Genre Popularity vs Average Rating</text>
  <text x="100" y="72" font-size="18" fill="#4b5563">Each bubble is a genre; larger bubbles indicate more movies in the catalog</text>
  <line x1="100" y1="90" x2="100" y2="630" stroke="#111827" stroke-width="2"/>
  <line x1="100" y1="630" x2="1030" y2="630" stroke="#111827" stroke-width="2"/>
  <line x1="100.00" y1="90" x2="100.00" y2="630" stroke="#e5e7eb"/><text x="100.00" y="680" text-anchor="middle" font-size="16" fill="#374151">8.44</text><line x1="286.00" y1="90" x2="286.00" y2="630" stroke="#e5e7eb"/><text x="286.00" y="680" text-anchor="middle" font-size="16" fill="#374151">14.25</text><line x1="472.00" y1="90" x2="472.00" y2="630" stroke="#e5e7eb"/><text x="472.00" y="680" text-anchor="middle" font-size="16" fill="#374151">20.05</text><line x1="658.00" y1="90" x2="658.00" y2="630" stroke="#e5e7eb"/><text x="658.00" y="680" text-anchor="middle" font-size="16" fill="#374151">25.86</text><line x1="844.00" y1="90" x2="844.00" y2="630" stroke="#e5e7eb"/><text x="844.00" y="680" text-anchor="middle" font-size="16" fill="#374151">31.67</text><line x1="1030.00" y1="90" x2="1030.00" y2="630" stroke="#e5e7eb"/><text x="1030.00" y="680" text-anchor="middle" font-size="16" fill="#374151">37.47</text>
  <line x1="100" y1="630.00" x2="1030" y2="630.00" stroke="#e5e7eb"/><text x="85" y="635.00" text-anchor="end" font-size="16" fill="#374151">5</text><line x1="100" y1="522.00" x2="1030" y2="522.00" stroke="#e5e7eb"/><text x="85" y="527.00" text-anchor="end" font-size="16" fill="#374151">5.4</text><line x1="100" y1="414.00" x2="1030" y2="414.00" stroke="#e5e7eb"/><text x="85" y="419.00" text-anchor="end" font-size="16" fill="#374151">5.8</text><line x1="100" y1="306.00" x2="1030" y2="306.00" stroke="#e5e7eb"/><text x="85" y="311.00" text-anchor="end" font-size="16" fill="#374151">6.2</text><line x1="100" y1="198.00" x2="1030" y2="198.00" stroke="#e5e7eb"/><text x="85" y="203.00" text-anchor="end" font-size="16" fill="#374151">6.6</text><line x1="100" y1="90.00" x2="1030" y2="90.00" stroke="#e5e7eb"/><text x="85" y="95.00" text-anchor="end" font-size="16" fill="#374151">7</text>
  <circle cx="365.21" cy="316.78" r="26.00" fill="hsl(0, 65%, 55%)" fill-opacity="0.75" stroke="#0f172a" stroke-width="1.5"/><text x="397.21" y="321.78" font-size="14" fill="#111827">Drama</text><circle cx="451.66" cy="340.04" r="19.81" fill="hsl(31, 65%, 55%)" fill-opacity="0.75" stroke="#0f172a" stroke-width="1.5"/><text x="477.47" y="345.04" font-size="14" fill="#111827">Comedy</text><circle cx="614.15" cy="402.15" r="17.82" fill="hsl(62, 65%, 55%)" fill-opacity="0.75" stroke="#0f172a" stroke-width="1.5"/><text x="637.97" y="407.15" font-size="14" fill="#111827">Thriller</text><circle cx="861.59" cy="340.26" r="16.44" fill="hsl(93, 65%, 55%)" fill-opacity="0.75" stroke="#0f172a" stroke-width="1.5"/><text x="884.03" y="345.26" font-size="14" fill="#111827">Action</text><circle cx="443.58" cy="371.56" r="14.70" fill="hsl(124, 65%, 55%)" fill-opacity="0.75" stroke="#0f172a" stroke-width="1.5"/><text x="464.28" y="376.56" font-size="14" fill="#111827">Romance</text><circle cx="516.65" cy="512.05" r="14.32" fill="hsl(155, 65%, 55%)" fill-opacity="0.75" stroke="#0f172a" stroke-width="1.5"/><text x="536.97" y="517.05" font-size="14" fill="#111827">Horror</text><circle cx="965.86" cy="280.24" r="12.61" fill="hsl(186, 65%, 55%)" fill-opacity="0.75" stroke="#0f172a" stroke-width="1.5"/><text x="984.47" y="285.24" font-size="14" fill="#111827">Adventure</text><circle cx="521.57" cy="310.70" r="12.53" fill="hsl(217, 65%, 55%)" fill-opacity="0.75" stroke="#0f172a" stroke-width="1.5"/><text x="540.10" y="315.70" font-size="14" fill="#111827">Crime</text><circle cx="746.17" cy="159.72" r="12.11" fill="hsl(248, 65%, 55%)" fill-opacity="0.75" stroke="#0f172a" stroke-width="1.5"/><text x="764.28" y="164.72" font-size="14" fill="#111827">Animation</text><circle cx="738.27" cy="232.02" r="11.83" fill="hsl(279, 65%, 55%)" fill-opacity="0.75" stroke="#0f172a" stroke-width="1.5"/><text x="756.10" y="237.02" font-size="14" fill="#111827">Family</text><circle cx="928.04" cy="376.11" r="11.79" fill="hsl(310, 65%, 55%)" fill-opacity="0.75" stroke="#0f172a" stroke-width="1.5"/><text x="945.83" y="381.11" font-size="14" fill="#111827">Science Fiction</text><circle cx="638.10" cy="279.84" r="11.78" fill="hsl(341, 65%, 55%)" fill-opacity="0.75" stroke="#0f172a" stroke-width="1.5"/><text x="655.88" y="284.84" font-size="14" fill="#111827">Fantasy</text><circle cx="387.89" cy="356.13" r="11.24" fill="hsl(12, 65%, 55%)" fill-opacity="0.75" stroke="#0f172a" stroke-width="1.5"/><text x="405.12" y="361.13" font-size="14" fill="#111827">Mystery</text><circle cx="186.36" cy="334.53" r="10.39" fill="hsl(43, 65%, 55%)" fill-opacity="0.75" stroke="#0f172a" stroke-width="1.5"/><text x="202.75" y="339.53" font-size="14" fill="#111827">Documentary</text><circle cx="345.38" cy="179.22" r="9.91" fill="hsl(74, 65%, 55%)" fill-opacity="0.75" stroke="#0f172a" stroke-width="1.5"/><text x="361.28" y="184.22" font-size="14" fill="#111827">History</text><circle cx="164.14" cy="300.06" r="9.64" fill="hsl(105, 65%, 55%)" fill-opacity="0.75" stroke="#0f172a" stroke-width="1.5"/><text x="179.77" y="305.06" font-size="14" fill="#111827">TV Movie</text><circle cx="307.35" cy="216.80" r="9.27" fill="hsl(136, 65%, 55%)" fill-opacity="0.75" stroke="#0f172a" stroke-width="1.5"/><text x="322.62" y="221.80" font-size="14" fill="#111827">Music</text><circle cx="544.03" cy="210.51" r="9.09" fill="hsl(167, 65%, 55%)" fill-opacity="0.75" stroke="#0f172a" stroke-width="1.5"/><text x="559.12" y="215.51" font-size="14" fill="#111827">War</text>
  <text x="565.00" y="705" text-anchor="middle" font-size="18" fill="#111827">Average popularity</text>
  <text x="28" y="360.00" text-anchor="middle" font-size="18" fill="#111827" transform="rotate(-90 28 360.00)">Average rating</text>
</svg>