<svg xmlns="http://www.w3.org/2000/svg" width="1100" height="860" viewBox="0 0 1100 860">
  <rect width="100%" height="100%" fill="#fffdf7"/>
  <text x="40" y="48" font-size="30" font-weight="700" fill="#111827">Genre Share Treemap</text>
  <text x="40" y="76" font-size="18" fill="#4b5563">Treemap of the 12 largest movie genres by catalog share</text>
  <rect x="40.00" y="100.00" width="615.94" height="250.36" fill="hsl(0, 60%, 60%)" stroke="#ffffff" stroke-width="3"/><text x="52.00" y="231.85" font-size="20.00" font-weight="700" fill="#0f172a">Drama 21%</text><rect x="655.94" y="100.00" width="404.06" height="250.36" fill="hsl(27, 60%, 60%)" stroke="#ffffff" stroke-width="3"/><text x="667.94" y="231.85" font-size="20.00" font-weight="700" fill="#0f172a">Comedy 13.77%</text><rect x="40.00" y="350.36" width="548.57" height="153.33" fill="hsl(54, 60%, 60%)" stroke="#ffffff" stroke-width="3"/><text x="52.00" y="433.69" font-size="20.00" font-weight="700" fill="#0f172a">Thriller 11.45%</text><rect x="588.57" y="350.36" width="471.43" height="153.33" fill="hsl(81, 60%, 60%)" stroke="#ffffff" stroke-width="3"/><text x="600.57" y="433.69" font-size="20.00" font-weight="700" fill="#0f172a">Action 9.84%</text><rect x="40.00" y="503.69" width="1020.00" height="56.25" fill="hsl(108, 60%, 60%)" stroke="#ffffff" stroke-width="3"/><text x="52.00" y="538.49" font-size="20.00" font-weight="700" fill="#0f172a">Romance 7.81%</text><rect x="40.00" y="559.94" width="1020.00" height="53.06" fill="hsl(135, 60%, 60%)" stroke="#ffffff" stroke-width="3"/><text x="52.00" y="593.14" font-size="20.00" font-weight="700" fill="#0f172a">Horror 7.37%</text><rect x="40.00" y="613.00" width="1020.00" height="38.68" fill="hsl(162, 60%, 60%)" stroke="#ffffff" stroke-width="3"/><text x="52.00" y="639.00" font-size="14.68" font-weight="700" fill="#0f172a">Adventure 5.37%</text><rect x="40.00" y="651.68" width="1020.00" height="38.03" fill="hsl(189, 60%, 60%)" stroke="#ffffff" stroke-width="3"/><text x="52.00" y="677.68" font-size="14.31" font-weight="700" fill="#0f172a">Crime 5.28%</text><rect x="40.00" y="689.71" width="1020.00" height="34.55" fill="hsl(216, 60%, 60%)" stroke="#ffffff" stroke-width="3"/><text x="52.00" y="714.26" font-size="12.40" font-weight="700" fill="#0f172a">Animation 4.8%</text><rect x="40.00" y="724.26" width="1020.00" height="32.21" fill="hsl(243, 60%, 60%)" stroke="#ffffff" stroke-width="3"/><text x="52.00" y="746.46" font-size="12.00" font-weight="700" fill="#0f172a">Family 4.47%</text><rect x="40.00" y="756.46" width="1020.00" height="31.81" fill="hsl(270, 60%, 60%)" stroke="#ffffff" stroke-width="3"/><text x="52.00" y="778.28" font-size="12.00" font-weight="700" fill="#0f172a">Science Fiction 4.42%</text><rect x="40.00" y="788.28" width="1020.00" height="31.72" fill="hsl(297, 60%, 60%)" stroke="#ffffff" stroke-width="3"/><text x="52.00" y="810.00" font-size="12.00" font-weight="700" fill="#0f172a">Fantasy 4.41%</text>
</svg>