<svg xmlns="http://www.w3.org/2000/svg" width="1100" height="720" viewBox="0 0 1100 720">
  <rect width="100%" height="100%" fill="#f8fafc"/>
  <text x="240" y="45" font-size="30" font-weight="700" fill="#0f172a">Top Netflix Movie Genres</text>
  <text x="240" y="72" font-size="18" fill="#475569">Horizontal bar chart of the 10 most common movie genres</text>
  <text x="225" y="115" text-anchor="end" font-size="20" fill="#1f2937">Drama</text><text x="225" y="171" text-anchor="end" font-size="20" fill="#1f2937">Comedy</text><text x="225" y="227" text-anchor="end" font-size="20" fill="#1f2937">Thriller</text><text x="225" y="283" text-anchor="end" font-size="20" fill="#1f2937">Action</text><text x="225" y="339" text-anchor="end" font-size="20" fill="#1f2937">Romance</text><text x="225" y="395" text-anchor="end" font-size="20" fill="#1f2937">Horror</text><text x="225" y="451" text-anchor="end" font-size="20" fill="#1f2937">Adventure</text><text x="225" y="507" text-anchor="end" font-size="20" fill="#1f2937">Crime</text><text x="225" y="563" text-anchor="end" font-size="20" fill="#1f2937">Animation</text><text x="225" y="619" text-anchor="end" font-size="20" fill="#1f2937">Family</text>
  <rect x="240" y="90" width="800.00" height="38" rx="8" fill="hsl(210, 55%, 50%)" /><rect x="240" y="146" width="524.80" height="38" rx="8" fill="hsl(220, 55%, 52%)" /><rect x="240" y="202" width="436.35" height="38" rx="8" fill="hsl(230, 55%, 54%)" /><rect x="240" y="258" width="374.99" height="38" rx="8" fill="hsl(240, 55%, 56%)" /><rect x="240" y="314" width="297.66" height="38" rx="8" fill="hsl(250, 55%, 58%)" /><rect x="240" y="370" width="280.75" height="38" rx="8" fill="hsl(260, 55%, 60%)" /><rect x="240" y="426" width="204.69" height="38" rx="8" fill="hsl(270, 55%, 62%)" /><rect x="240" y="482" width="201.22" height="38" rx="8" fill="hsl(280, 55%, 64%)" /><rect x="240" y="538" width="182.81" height="38" rx="8" fill="hsl(290, 55%, 66%)" /><rect x="240" y="594" width="170.42" height="38" rx="8" fill="hsl(300, 55%, 68%)" />
  <text x="1028.00" y="115" text-anchor="end" font-size="17" font-weight="700" fill="#ffffff">23.0%</text><text x="752.80" y="171" text-anchor="end" font-size="17" font-weight="700" fill="#ffffff">15.1%</text><text x="664.35" y="227" text-anchor="end" font-size="17" font-weight="700" fill="#ffffff">12.6%</text><text x="602.99" y="283" text-anchor="end" font-size="17" font-weight="700" fill="#ffffff">10.8%</text><text x="525.66" y="339" text-anchor="end" font-size="17" font-weight="700" fill="#ffffff">8.6%</text><text x="508.75" y="395" text-anchor="end" font-size="17" font-weight="700" fill="#ffffff">8.1%</text><text x="432.69" y="451" text-anchor="end" font-size="17" font-weight="700" fill="#ffffff">5.9%</text><text x="429.22" y="507" text-anchor="end" font-size="17" font-weight="700" fill="#ffffff">5.8%</text><text x="410.81" y="563" text-anchor="end" font-size="17" font-weight="700" fill="#ffffff">5.3%</text><text x="398.42" y="619" text-anchor="end" font-size="17" font-weight="700" fill="#ffffff">4.9%</text>
  <text x="1052.00" y="115" font-size="18" fill="#111827">6910</text><text x="776.80" y="171" font-size="18" fill="#111827">4533</text><text x="688.35" y="227" font-size="18" fill="#111827">3769</text><text x="626.99" y="283" font-size="18" fill="#111827">3239</text><text x="549.66" y="339" font-size="18" fill="#111827">2571</text><text x="532.75" y="395" font-size="18" fill="#111827">2425</text><text x="456.69" y="451" font-size="18" fill="#111827">1768</text><text x="453.22" y="507" font-size="18" fill="#111827">1738</text><text x="434.81" y="563" font-size="18" fill="#111827">1579</text><text x="422.42" y="619" font-size="18" fill="#111827">1472</text>
</svg>